<svg id="Layer_1_1_" enable-background="new 0 0 64 64" height="512" viewBox="0 0 64 64" width="512" xmlns="http://www.w3.org/2000/svg"><path d="m5.042 49.108c-.262 2.772.708 5.493 2.662 7.463.477.481 1.001.897 1.556 1.256.578.878 1.293 1.653 2.141 2.297 1.622 1.23 3.567 1.876 5.552 1.876.711 0 1.428-.083 2.136-.252 2.697-.643 4.944-2.449 6.167-4.955l5.435-11.148c.137.018.273.041.413.041.371 0 .727-.074 1.067-.195l1.552 3.912c.38.958 1.208 1.654 2.213 1.859.203.042.406.062.608.062.797 0 1.569-.316 2.145-.897.856-.863 1.119-2.153.67-3.285l-1.713-4.318 5.034 2.308c1.161.53 2.548.279 3.449-.63.711-.717 1.028-1.741.847-2.737-.181-.993-.834-1.836-1.748-2.256l-4.866-2.23c.119-.319.182-.653.197-.989.785-.017 1.52-.327 2.076-.888l.263-.265c.929-.937 1.112-2.333.572-3.464l10.488-7.192c2.28-1.564 3.738-4.047 4-6.814.262-2.773-.708-5.493-2.662-7.463-1.072-1.081-2.476-1.904-3.933-2.366-.009-.11-.011-.223-.025-.331-.268-2.007-1.39-3.553-3.333-4.593-2.076-1.11-4.118-1.21-6.071-.296-5.768 2.699-8.968 13.843-9.932 17.766-1.046-.311-2.247-.079-3.041.723l-.263.265c-.58.585-.871 1.35-.879 2.118-.781.036-1.55.33-2.119.905-.615.62-.923 1.431-.932 2.245-.808.018-1.609.318-2.197.912-.615.62-.923 1.431-.932 2.244-.808.018-1.609.318-2.198.911-1.227 1.238-1.24 3.235-.054 4.498l-10.345 7.09c-2.281 1.563-3.738 4.047-4 6.813zm18.416 6.809c-.958 1.966-2.72 3.382-4.833 3.886-1.623.386-3.299.19-4.773-.52.127.005.253.019.381.019.288 0 .579-.013.869-.041 2.755-.26 5.228-1.731 6.783-4.038l6.902-10.236zm13.811-6.898c-.248.251-.585.356-.933.284-.347-.071-.622-.303-.754-.637l-1.775-4.473c.323-.508.488-1.087.5-1.669.344-.008.677-.075.993-.188l2.199 5.544c.156.393.065.84-.23 1.139zm7.739-6.897c.065.359-.043.713-.299.971-.313.316-.794.404-1.196.22l-6.28-2.879c.128-.344.197-.705.204-1.068.582-.014 1.136-.183 1.619-.487l5.338 2.447c.325.15.549.44.614.796zm10.959-24.645c-.206 2.174-1.35 4.125-3.139 5.353l-10.637 7.294-.851-.858 10.656-8.145c1.853-1.375 2.334-2.879 2.412-3.898.112-1.478-.532-3.003-1.813-4.296-.548-.552-1.148-.979-1.766-1.29.189-.587.337-1.166.433-1.731.969.388 1.9.986 2.614 1.706 1.535 1.546 2.297 3.684 2.091 5.865zm-5.867-3.97c.367.208.73.48 1.075.827.866.874 1.306 1.846 1.238 2.736-.066.879-.608 1.701-1.62 2.452l-10.873 8.312-.355-.358c2.08-2.066 7.921-8.17 10.535-13.969zm-7.318-9.081c1.37-.641 2.769-.559 4.279.249 1.363.729 2.114 1.742 2.294 3.094.707 5.287-7.275 14.413-11.197 18.289l-.96-.968c3.312-3.446 12.748-13.97 8.696-18.056-.675-.68-1.516-.939-2.375-.727-3.638.9-7.47 11.548-8.96 16.121l-.797-.804c.613-2.64 3.675-14.698 9.02-17.198zm-6.276 18.487c2.063-6.278 5.419-14.151 7.494-14.664.03-.008.064-.016.104-.016.086 0 .202.039.371.209 2.018 2.035-3.089 9.217-7.969 14.471zm-6.389-.136.263-.265c.388-.391 1.059-.391 1.446 0l9.652 9.733c.405.409.405 1.074 0 1.483l-.263.265c-.386.389-1.059.39-1.447 0l-.13-.131c-.001-.001-.001-.001-.002-.002l-9.52-9.601c-.405-.408-.405-1.073.001-1.482zm-2.998 3.023c.458-.461 1.251-.462 1.709 0l9.389 9.469c.477.482.477 1.265-.001 1.747-.458.461-1.251.462-1.709 0l-9.389-9.468c-.477-.482-.477-1.266.001-1.748zm-3.13 3.157c.458-.462 1.251-.462 1.709 0l9.389 9.468c.478.482.478 1.266 0 1.748-.458.462-1.252.462-1.71 0l-9.388-9.468c-.477-.483-.477-1.267 0-1.748zm-3.13 3.155c.458-.462 1.252-.462 1.71 0l9.388 9.468c.478.482.478 1.266 0 1.748-.457.462-1.251.462-1.709 0l-9.388-9.468c-.478-.482-.478-1.266-.001-1.748zm4.339 8.963-8.26 10.99c-.736 1.009-1.549 1.554-2.416 1.62-.878.07-1.834-.376-2.697-1.246-.866-.874-1.306-1.845-1.238-2.736.066-.879.608-1.701 1.62-2.452l10.873-8.31zm-4.389-4.425.851.858-10.656 8.145c-1.853 1.375-2.334 2.879-2.412 3.899-.112 1.478.532 3.003 1.813 4.295 1.188 1.198 2.576 1.844 3.943 1.844.108 0 .217-.004.325-.012 1.017-.077 2.515-.562 3.873-2.424l8.075-10.745.847.854-7.242 10.74c-1.219 1.808-3.155 2.961-5.312 3.165-2.149.197-4.261-.565-5.79-2.107-1.535-1.548-2.297-3.686-2.091-5.867.206-2.174 1.35-4.125 3.139-5.352z"/></svg>