<svg height="682pt" viewBox="-22 -21 682 682.66165" width="682pt" xmlns="http://www.w3.org/2000/svg"><path d="m135.4375 518.070312-13.261719-13.261718 13.257813-13.253906 13.261718 13.261718zm22.09375-22.097656-13.257812-13.257812 13.257812-13.253906 13.257812 13.253906zm0 0"/><path d="m29.042969 545.675781-28.796875 28.789063.007812 20.253906 45.273438 45.277344h20.257812l160.96875-160.972656-65.53125-65.535157zm28.972656 75.570313h-4.722656l-34.289063-34.296875v-4.722657l10.039063-10.039062 39.015625 39.015625zm23.300781-23.300782-39.019531-39.015624 118.925781-118.921876 39.019532 39.011719zm0 0"/><path d="m585.476562 53.625c-38.097656-38.09375-90.53125-56.972656-147.605468-53.136719-55.53125 3.722657-109.003906 28.664063-150.566406 70.226563-36.589844 36.597656-60.078126 81.667968-67.914063 130.34375l-36.359375 206.488281 18.464844 3.25c31.980468-181.632813 36.363281-206.492187 36.394531-206.691406 7.195313-44.78125 28.867187-86.324219 62.675781-120.128907 38.351563-38.351562 87.558594-61.355468 138.566406-64.777343 106.765626-7.1875 187.941407 73.976562 180.777344 180.777343-3.421875 51.003907-26.429687 100.210938-64.777344 138.566407-33.808593 33.808593-75.347656 55.476562-120.128906 62.675781l-206.695312 36.394531 3.25 18.460938 206.492187-36.355469c48.671875-7.835938 93.742188-31.324219 130.335938-67.921875 41.5625-41.558594 66.503906-95.03125 70.230469-150.5625 3.828124-57.089844-15.042969-109.511719-53.140626-147.609375zm0 0"/><path d="m403.636719 379.707031c95.757812 0 184.710937-81.429687 192.203125-179.816406 7.125-93.578125-63.0625-163.726563-156.625-156.625-92.421875 7.035156-172.324219 86.910156-179.359375 179.359375-6.808594 89.402344 56.824219 157.082031 143.78125 157.082031zm77.089843-274.746093 20.078126 20.078124-29.851563 29.851563-20.078125-20.082031zm-43.109374 16.589843-20.078126-20.078125 29.847657-29.847656 20.078125 20.078125zm-6.277344 166.152344 29.847656-29.847656 20.078125 20.078125-29.855469 29.847656zm6.816406 33.335937-29.851562 29.847657-20.070313-20.074219 29.84375-29.847656zm9.773438-76.441406-29.851563 29.847656-20.078125-20.078124 29.851562-29.851563zm-6.820313-33.339844 29.847656-29.847656 20.078125 20.078125-29.847656 29.847657zm33.335937 33.339844 29.851563-29.847656 20.078125 20.070312-29.851562 29.855469zm43.109376-43.109375 29.847656-29.851562 20.078125 20.078125-29.847657 29.851562zm-13.257813-13.257812-20.082031-20.082031 29.851562-29.847657 20.078125 20.074219zm-46.601563-20.082031-29.847656 29.847656-20.078125-20.078125 29.847657-29.847657zm-43.105468 43.109374-29.851563 29.847657-20.078125-20.078125 29.851563-29.851563zm-43.109375 43.105469-29.847657 29.847657-20.078124-20.078126 29.847656-29.847656zm13.261719 13.261719 20.078124 20.078125-29.847656 29.847656-20.078125-20.078125zm-23.03125 63.1875-16.90625 16.902344c-8.617188-4.269532-16.738282-9.589844-24.203126-15.957032l21.03125-21.027343zm13.261718 13.257812 16.429688 16.429688c-9.449219-.804688-18.699219-2.554688-27.597656-5.257812zm76.445313-9.777343 14.042969 14.046875c-12.8125 5.320312-25.949219 8.984375-39.042969 10.957031zm13.253906-13.253907 29.851563-29.851562 23.585937 23.585938c-10.886719 9.871093-22.585937 18.195312-34.765625 24.933593zm43.105469-43.105468 29.855468-29.855469 18.691407 18.691406c-6.816407 12.300781-15.179688 23.976563-24.957031 34.746094zm43.109375-43.113282 24.972656-24.96875c-1.988281 13.308594-5.667969 26.410157-10.902344 39.03125zm9.777343-76.4375 11.175782-11.175781c2.671875 8.800781 4.429687 18.035157 5.234375 27.585938zm-13.261718-13.261718-20.078125-20.078125 21.035156-21.035157c6.308594 7.402344 11.640625 15.511719 15.957031 24.203126zm-33.339844-33.339844-20.078125-20.078125 16.914063-16.914063c8.691406 4.3125 16.800781 9.644532 24.203124 15.957032zm-33.335938-33.339844-16.414062-16.417968c9.550781.808593 18.785156 2.566406 27.59375 5.242187zm-76.445312 9.773438-14.066406-14.0625c12.628906-5.238282 25.726562-8.917969 39.039062-10.90625zm-13.253906 13.257812-29.855469 29.847656-23.582031-23.582031c10.769531-9.777343 22.445312-18.140625 34.746094-24.957031zm13.253906 13.261719 20.078125 20.074219-29.847656 29.851562-20.078125-20.078125zm-23.03125 63.183594-29.847656 29.847656-20.078125-20.078125 29.847656-29.847656zm-43.105469 43.105469-29.851562 29.847656-20.074219-20.074219 29.847656-29.847656zm-58.308593-8.359376c1.988281-13.3125 5.671874-26.410156 10.90625-39.039062l14.0625 14.0625zm15.199218 51.46875-11.175781 11.175782c-2.675781-8.800782-4.433594-18.035156-5.234375-27.585938zm13.257813 13.257813 20.082031 20.082031-21.035156 21.035156c-6.3125-7.402343-11.644532-15.511718-15.960938-24.199218zm16.035156-156.394531 23.589844 23.585937-29.851563 29.847657-18.691406-18.6875c6.8125-12.300782 15.175781-23.972657 24.953125-34.746094zm0 0"/><path d="m245.382812 300.886719-20.785156 113.621093 113.617188-20.785156-21.878906-12.765625c-24.074219-14.035156-44.148438-34.105469-58.195313-58.1875zm41.957032 83.085937-39.414063 7.207032 7.210938-39.414063c9.058593 11.699219 19.785156 22.585937 32.203125 32.207031zm0 0"/></svg>